<svg version="1.0" xmlns="http://www.w3.org/2000/svg"
 width="1200" height="1040" viewBox="0 0 1200.421725 1040.225608"
 preserveAspectRatio="xMidYMid meet">
<metadata>
For more coloring pages, please visit ColoringAll.com
</metadata>
<g transform="translate(-0.333062,1040.725608) scale(0.100000,-0.100000)"
fill="#000000" stroke="none">
<path d="M6345 10403 c-661 -5 -1655 -31 -2125 -54 -676 -33 -888 -102 -983
-320 -57 -130 -82 -318 -97 -732 -23 -610 35 -1699 102 -1916 18 -58 30 -75
97 -141 246 -244 530 -221 923 75 176 132 377 323 660 626 391 418 557 552
764 616 80 24 351 25 434 0 136 -40 180 -173 210 -642 37 -575 67 -4180 40
-4860 -9 -246 -22 -331 -65 -415 -50 -99 -88 -82 -100 48 -8 90 -21 129 -53
164 -52 56 -118 59 -267 13 -150 -47 -217 -33 -345 70 -110 88 -415 368 -414
380 1 6 42 65 91 132 98 132 183 289 258 478 102 258 252 511 400 675 319 353
363 522 244 940 -58 204 -145 337 -256 390 -60 29 -194 38 -297 20 -96 -17
-315 -89 -401 -133 -142 -71 -256 -156 -375 -276 -117 -118 -163 -183 -207
-291 -68 -170 -68 -293 2 -565 71 -282 93 -435 62 -435 -37 0 -239 153 -438
331 -443 397 -684 561 -932 633 -152 44 -211 51 -427 50 -224 0 -322 -13 -516
-64 -743 -197 -1333 -821 -1453 -1535 -62 -370 -50 -888 26 -1175 65 -244 67
-304 15 -351 -45 -40 -101 -52 -217 -47 -121 6 -223 37 -339 105 -134 77 -243
102 -306 70 -38 -19 -62 -73 -56 -127 13 -107 124 -268 259 -375 126 -101 204
-131 493 -190 388 -79 418 -96 509 -303 58 -131 155 -318 224 -431 78 -128 73
-149 -71 -364 -77 -115 -108 -181 -108 -235 0 -37 6 -49 45 -91 86 -92 161
-89 262 11 67 66 83 62 161 -34 31 -39 67 -83 79 -97 l23 -26 116 123 c64 68
129 129 145 137 36 19 73 19 89 -1 8 -8 33 -27 57 -41 128 -75 292 20 358 206
27 78 37 168 24 230 -20 100 -53 145 -274 371 -269 274 -304 335 -235 413 40
46 122 81 271 116 296 71 471 80 580 29 54 -25 239 -156 239 -169 0 -4 -47
-92 -104 -195 -116 -212 -147 -284 -130 -312 32 -52 239 -170 379 -217 108
-36 197 -32 347 18 216 72 284 123 354 268 70 142 79 179 79 314 -1 107 -4
128 -28 190 -37 93 -85 172 -206 339 l-101 139 30 19 c17 10 68 37 113 59 116
59 313 178 442 269 132 92 221 146 256 155 22 5 33 -2 80 -53 77 -83 149 -188
290 -417 67 -110 124 -202 125 -204 2 -2 101 6 219 19 196 22 216 23 231 8 14
-14 13 -21 -14 -84 -54 -123 -68 -212 -52 -323 24 -166 84 -284 210 -412 68
-69 102 -94 170 -127 102 -51 180 -68 370 -82 87 -6 731 -13 1600 -17 l1455
-6 148 97 c221 145 337 264 412 421 74 155 87 320 32 425 -75 145 -230 345
-463 599 -355 386 -417 471 -473 640 -64 197 -78 439 -102 1841 -23 1350 28
2741 121 3320 25 154 34 187 72 275 75 173 165 286 265 333 52 24 70 27 163
27 129 0 203 -23 317 -97 159 -104 274 -243 545 -663 350 -541 465 -683 610
-754 181 -88 405 -82 591 16 75 40 183 133 216 186 125 203 214 1114 182 1860
-24 552 -65 724 -204 853 -88 82 -168 121 -292 139 -582 86 -2848 138 -5160
118z m4760 -402 c251 -17 339 -32 429 -75 117 -57 132 -96 160 -426 31 -359
39 -626 27 -874 -22 -458 -81 -771 -183 -968 -65 -126 -127 -168 -247 -168
-141 0 -248 106 -543 542 -445 658 -753 975 -1008 1039 -75 19 -240 17 -320
-4 -379 -98 -667 -498 -730 -1012 -30 -247 -33 -446 -37 -2420 -6 -2353 -1
-2549 68 -2818 44 -175 87 -238 339 -507 463 -494 605 -679 618 -810 6 -69
-29 -139 -111 -217 -136 -131 -329 -186 -787 -225 -206 -17 -1853 -17 -2184 1
-380 20 -466 38 -578 120 -192 143 -165 309 111 675 69 91 419 519 495 604 20
23 21 44 48 1225 49 2215 47 3265 -7 4352 l-25 510 -113 108 c-255 244 -323
274 -602 264 -290 -11 -479 -88 -765 -315 -52 -41 -302 -283 -555 -536 -459
-460 -571 -562 -669 -614 -46 -25 -61 -27 -156 -26 -128 0 -175 19 -214 87
-70 118 -80 285 -73 1230 5 749 12 914 42 1065 17 86 34 121 74 155 26 21 44
26 123 32 329 24 7017 30 7373 6z m-5280 -4226 c71 -19 100 -43 131 -110 32
-67 38 -121 24 -191 -25 -121 -109 -253 -247 -385 -107 -103 -211 -175 -348
-240 -131 -63 -224 -86 -391 -98 -150 -11 -193 -26 -174 -61 23 -43 200 -86
319 -77 196 15 385 108 690 340 117 88 215 147 227 135 18 -18 -100 -171 -301
-393 -283 -310 -336 -395 -428 -691 -95 -303 -278 -554 -476 -652 -106 -53
-134 -53 -239 -3 -90 44 -168 109 -188 158 -39 93 -5 152 209 371 203 206 203
207 194 356 -10 159 -51 339 -118 521 -19 51 -22 82 -23 199 -1 170 1 172 96
132 40 -17 78 -26 99 -24 29 3 34 7 37 31 4 31 -9 54 -75 135 -23 29 -43 61
-43 70 0 32 55 105 141 187 157 150 339 242 594 298 51 12 235 6 290 -8z
m-3037 -677 c7 -7 12 -22 12 -34 0 -56 -140 -258 -201 -290 -47 -24 -73 -12
-103 48 -61 121 -8 207 163 265 74 25 111 29 129 11z m545 -68 c90 -38 161
-87 165 -116 2 -12 -25 -54 -70 -110 -85 -107 -449 -512 -461 -513 -20 -2
-240 154 -258 182 -43 71 -17 142 120 325 117 158 163 207 226 244 46 27 56
29 125 25 56 -3 95 -12 153 -37z m-1053 -35 c0 -35 -42 -70 -145 -120 -137
-68 -219 -63 -120 7 56 40 235 138 253 138 6 0 12 -11 12 -25z m1517 -239 c69
-51 133 -132 133 -170 0 -15 -9 -43 -19 -64 -41 -80 -283 -406 -445 -600 l-69
-83 -174 173 c-95 95 -173 178 -173 184 0 17 489 495 565 552 43 31 80 52 96
52 16 0 51 -18 86 -44z m-1388 -95 c26 -37 26 -52 0 -85 -24 -30 -32 -32 -53
-10 -28 27 -14 124 18 124 8 0 24 -13 35 -29z m-584 -41 c52 -58 -60 -212
-201 -277 -53 -24 -63 -25 -148 -19 -49 4 -93 9 -96 12 -2 3 48 57 112 120 93
92 130 121 189 149 84 40 118 44 144 15z m331 -15 c25 -39 15 -124 -21 -170
-32 -43 -116 -85 -181 -93 -44 -5 -44 -4 -44 26 0 22 19 60 63 124 87 129 148
167 183 113z m414 -221 c77 -35 117 -69 141 -116 18 -34 19 -44 8 -70 -29 -71
-265 -259 -344 -274 -67 -12 -91 41 -82 180 8 121 37 206 92 262 37 39 47 44
86 44 26 0 66 -11 99 -26z m1646 -37 c90 -90 81 -134 -38 -177 -153 -56 -220
-185 -283 -542 l-28 -157 -32 27 c-43 36 -329 275 -334 278 -4 4 356 422 433
503 80 84 139 121 189 121 35 0 47 -7 93 -53z m-2136 -175 c18 -14 24 -33 30
-93 24 -250 -80 -379 -307 -379 -66 0 -77 3 -99 26 -25 24 -26 30 -22 112 3
68 9 99 30 144 35 75 110 155 173 184 64 30 162 33 195 6z m-562 -51 c35 -18
45 -73 39 -200 -3 -64 -11 -134 -17 -156 -18 -58 -66 -102 -123 -110 -92 -14
-281 28 -324 72 -35 34 -27 81 32 201 67 134 117 186 195 203 46 10 173 4 198
-10z m1469 -132 c24 -12 65 -41 92 -65 60 -54 141 -159 141 -183 0 -31 -370
-262 -612 -382 -92 -46 -111 -52 -135 -44 -41 14 -90 117 -105 221 -11 80 -11
82 15 137 29 58 105 136 213 219 161 123 276 151 391 97z m1550 16 c1 -5 -34
-35 -79 -65 -192 -128 -269 -236 -287 -403 -14 -124 -57 -203 -176 -323 -153
-153 -291 -224 -474 -242 -160 -16 -245 -65 -531 -303 -295 -246 -660 -445
-851 -466 -61 -6 -85 8 -48 27 11 7 73 30 137 52 197 67 328 148 517 318 446
401 404 373 670 440 252 62 340 95 432 160 77 53 119 101 158 177 38 77 54
154 64 318 13 223 47 283 178 314 51 12 285 9 290 -4z m-1120 -380 c56 -24
158 -101 280 -211 l111 -102 -122 -50 c-168 -69 -269 -99 -373 -112 -201 -26
-248 -55 -502 -312 l-186 -189 -43 133 c-48 148 -62 240 -42 288 25 59 210
205 485 381 126 80 324 189 345 189 6 0 27 -7 47 -15z m-1276 -5 c10 -6 25
-23 33 -38 26 -52 79 -286 80 -354 1 -61 -2 -69 -29 -98 -97 -101 -364 -180
-467 -137 -20 9 -43 28 -51 44 -19 36 -35 138 -43 279 -9 145 -1 160 111 214
67 33 192 75 270 93 37 9 76 7 96 -3z m-795 -124 c48 -20 72 -58 103 -161 21
-71 74 -396 66 -404 -13 -12 -427 51 -480 73 -23 10 -37 26 -49 57 -24 60 -40
205 -31 293 8 95 29 137 75 154 50 18 262 10 316 -12z m3111 -227 c118 -42
354 -146 373 -165 13 -13 11 -22 -19 -81 -44 -84 -185 -271 -298 -395 -193
-212 -430 -396 -631 -491 -79 -37 -95 -41 -167 -41 -76 -1 -80 0 -83 22 -5 34
11 70 96 215 90 154 145 279 165 373 20 95 25 105 105 224 120 179 303 370
354 370 9 0 56 -14 105 -31z m758 -208 c47 -21 133 -110 279 -289 179 -219
204 -235 418 -250 69 -5 131 -13 137 -16 18 -12 13 -38 -20 -94 -69 -121 -328
-339 -515 -434 -199 -100 -259 -77 -388 152 -67 118 -203 319 -280 415 l-64
80 80 156 c136 265 227 338 353 280z m-2908 -171 c49 -22 95 -86 118 -164 39
-132 -3 -213 -141 -271 -59 -25 -250 -73 -334 -85 -146 -21 -220 14 -220 103
0 195 83 301 302 388 131 51 208 60 275 29z m-1100 -80 c114 -16 333 -60 371
-76 28 -11 32 -18 32 -51 0 -69 -20 -164 -45 -214 -32 -62 -88 -100 -202 -138
-135 -46 -163 -48 -200 -17 -55 46 -153 317 -153 424 0 83 30 94 197 72z
m2393 -21 c72 -15 110 -50 110 -100 0 -57 -39 -143 -119 -266 -116 -178 -122
-211 -66 -319 50 -95 125 -191 249 -318 273 -279 337 -512 210 -766 -57 -114
-135 -190 -194 -190 -29 0 -41 6 -54 25 -38 58 -71 55 -196 -20 -75 -45 -133
-58 -143 -32 -8 21 19 87 53 126 46 54 91 124 87 136 -2 5 -26 10 -53 9 -36 0
-73 -11 -138 -42 -202 -96 -202 -38 1 285 l52 81 -109 102 c-227 211 -330 408
-330 629 0 171 50 295 185 463 110 136 143 167 207 189 61 21 171 25 248 8z
m2400 -49 c0 -31 -157 -100 -227 -100 -44 0 -42 14 8 47 73 48 219 84 219 53z
m-3260 -560 c28 -15 40 -65 40 -174 0 -120 -10 -163 -47 -199 -67 -63 -232
-107 -405 -107 -93 0 -101 2 -124 25 -25 25 -26 29 -22 140 3 128 12 149 84
196 130 85 407 155 474 119z m-1408 -58 c17 -16 -152 -392 -176 -392 -36 0
-33 165 4 263 13 35 40 77 66 104 37 39 47 45 71 39 15 -4 31 -10 35 -14z
m-1019 -53 c210 -82 262 -88 537 -63 90 8 95 2 95 -137 0 -94 -3 -111 -21
-136 -19 -25 -28 -28 -85 -31 -87 -4 -176 20 -305 82 -134 65 -248 150 -336
252 -98 112 -93 114 115 33z m1510 37 c58 -21 107 -65 129 -114 38 -85 47
-181 48 -483 l0 -286 192 -184 c105 -101 217 -216 249 -256 105 -132 139 -238
105 -327 -17 -45 -85 -117 -131 -138 -36 -16 -67 9 -132 110 -31 48 -60 91
-64 96 -4 5 -65 -45 -134 -111 -123 -118 -169 -153 -181 -140 -4 3 -6 51 -5
107 2 86 0 101 -15 107 -24 9 -67 -17 -174 -108 -119 -102 -176 -139 -212
-139 -26 0 -28 3 -28 43 0 48 25 104 135 306 l75 137 -118 235 c-127 250 -168
362 -203 541 -28 148 -24 339 8 410 39 85 131 160 238 194 53 17 170 17 218 0z
M4998 5440 c-29 -18 -41 -73 -24 -114 22 -52 69 -78 133 -73 99 7 124 70 55
136 -52 49 -126 72 -164 51z M10036 324 c-10 -47 -15 -88 -12 -91 5 -6 9 7 30
110 7 37 10 67 6 67 -4 0 -15 -39 -24 -86z M10350 400 c0 -5 5 -10 10 -10 6 0
10 5 10 10 0 6 -4 10 -10 10 -5 0 -10 -4 -10 -10z M10896 324 c-10 -47 -15
-88 -12 -91 5 -6 9 7 30 110 7 37 10 67 6 67 -4 0 -15 -39 -24 -86z M10976
399 c-3 -8 -10 -41 -16 -74 -6 -33 -14 -68 -16 -77 -3 -10 -1 -18 3 -18 10 0
46 171 38 178 -2 3 -7 -1 -9 -9z M9739 371 c-38 -38 -41 -101 -7 -125 29 -20
79 -20 104 0 18 14 18 15 1 10 -53 -17 -69 -17 -92 -2 -69 45 21 166 94 126
12 -6 21 -7 21 -1 0 12 -25 21 -62 21 -19 0 -39 -10 -59 -29z M10740 319 c-28
-45 -49 -83 -47 -85 2 -3 12 7 21 21 14 21 24 25 66 25 43 0 50 -3 50 -19 0
-11 5 -23 10 -26 6 -3 10 -3 10 1 0 20 -44 164 -51 164 -4 0 -30 -37 -59 -81z
m75 4 l7 -33 -42 0 c-42 0 -42 0 -28 23 8 12 21 32 29 44 15 25 22 18 34 -34z
M9890 340 c-22 -22 -27 -79 -8 -98 19 -19 66 -14 88 8 22 22 27 79 8 98 -19
19 -66 14 -88 -8z m71 0 c25 -14 25 -54 -1 -80 -23 -23 -33 -24 -61 -10 -25
14 -25 54 1 80 23 23 33 24 61 10z M10100 340 c-22 -22 -27 -79 -8 -98 19 -19
66 -14 88 8 22 22 27 79 8 98 -19 19 -66 14 -88 -8z m71 0 c25 -14 25 -54 -1
-80 -23 -23 -33 -24 -61 -10 -25 14 -25 54 1 80 23 23 33 24 61 10z M10246
334 c-3 -16 -8 -47 -11 -69 -8 -51 10 -26 19 27 5 27 15 42 34 53 18 10 22 14
10 15 -9 0 -20 -5 -24 -11 -5 -8 -9 -8 -14 1 -5 8 -10 3 -14 -16z M10347 353
c-2 -4 -7 -26 -11 -48 -4 -22 -9 -48 -12 -57 -3 -10 -1 -18 4 -18 4 0 14 28
20 62 11 58 10 81 -1 61z M10405 350 c-1 -3 -5 -23 -9 -45 -4 -22 -9 -48 -12
-57 -3 -10 -1 -18 4 -18 5 0 13 20 17 45 7 53 44 87 74 68 17 -11 19 -28 8
-80 -4 -18 -3 -33 2 -33 16 0 24 99 11 115 -12 14 -87 18 -95 5z M10570 340
c-22 -22 -27 -79 -8 -98 7 -7 24 -12 38 -12 14 0 31 5 38 12 9 9 12 8 12 -5 0
-9 -12 -24 -26 -34 -21 -13 -32 -15 -55 -6 -16 6 -29 8 -29 3 0 -24 81 -27
102 -2 18 19 50 162 37 162 -5 0 -9 -5 -9 -10 0 -7 -6 -7 -19 0 -30 16 -59 12
-81 -10z m71 0 c29 -16 25 -65 -6 -86 -56 -37 -103 28 -55 76 23 23 33 24 61
10z M11071 341 c-23 -23 -28 -80 -9 -99 19 -19 88 -13 88 9 0 5 -11 4 -24 -2
-54 -25 -89 38 -46 81 23 23 33 24 62 9 16 -9 19 -8 16 3 -8 22 -64 22 -87 -1z
M11200 340 c-22 -22 -27 -79 -8 -98 19 -19 66 -14 88 8 22 22 27 79 8 98 -19
19 -66 14 -88 -8z m71 0 c25 -14 25 -54 -1 -80 -23 -23 -33 -24 -61 -10 -25
14 -25 54 1 80 23 23 33 24 61 10z M11346 331 c-3 -14 -8 -44 -11 -66 -8 -51
10 -26 19 27 8 41 35 63 66 53 22 -7 24 -21 11 -77 -5 -22 -5 -38 0 -38 5 0 9
6 9 13 0 68 51 125 85 97 15 -13 15 -35 -1 -92 -3 -10 -1 -18 4 -18 6 0 13 23
17 50 9 63 -5 84 -49 76 -17 -4 -35 -6 -41 -6 -101 8 -104 7 -109 -19z M10990
240 c0 -5 5 -10 10 -10 6 0 10 5 10 10 0 6 -4 10 -10 10 -5 0 -10 -4 -10 -10z"/>
</g>
</svg>
